<svg id="Layer_1" data-name="Layer 1" xmlns="http://www.w3.org/2000/svg" viewBox="0 0 934.7 165.05"><defs><style>.cls-1{fill:#f0f2fa;}.cls-2{isolation:isolate;}</style></defs><path class="cls-1" d="M60.44,3.76c-4.32,1.82-5,9.93-1,12.09,1,.52,10.36.86,21.93.86h20.26l1.47,4.92c.78,2.77,7.77,27.71,15.45,55.42,11.4,41.1,14.42,50.77,16,52.06,1.47,1.12,3.46,1.55,7.95,1.55,5.26,0,5.95.18,5.52,1.47-2.16,7.94-1,14.76,3.45,19.94,5.1,6,12.18,6.65,20.72,2a25.29,25.29,0,0,0,6.91-5.87c3-4,5.18-11.83,4.31-15.46l-.51-2.07h28.31l-.86,3.2c-1.9,7.08,1.38,17.78,6.47,20.89,4.32,2.59,7.86,2.93,13,1.47,10-2.94,16.14-10.71,16.14-20.55v-5h7.26c5.61,0,7.68-.34,9.15-1.55,1.29-1,6.82-14.94,18.64-47.23,9.24-25.2,16.75-46.6,16.75-47.73a6.66,6.66,0,0,0-2.16-4.05L293.53,28H214.1c-78.39,0-79.42,0-81.58,1.72a9,9,0,0,0-2.76,3.46c-.78,2.5,8.89,36.25,11.05,38.59l1.72,2h52.15c41.09,0,52,.26,52,1a50.63,50.63,0,0,1-2.41,7.16l-2.33,6-45.75.26-45.84.18-2,2.16a6.46,6.46,0,0,0-.12,9.15,6.64,6.64,0,0,0,.55.51l2.25,2h48.26c33.67,0,48.86-.26,50.41-1a9.46,9.46,0,0,0,3.43-4.08C256,90.59,264,68.15,264,66.68a8.28,8.28,0,0,0-2.07-4l-2.07-2.42-54.65-.43-54.64-.43-1.9-6.47c-1-3.54-2.07-7.51-2.42-8.89l-.51-2.34h67.33c37,0,67.34.26,67.34.61s-6,17.26-13.56,37.55l-13.46,37H144.09l-1.73-5.87c-1-3.19-7.59-27.19-14.76-53.26s-13.55-48.61-14-49.9C111.88,3.2,110,2.86,85.12,2.94,72.63,3,61.56,3.33,60.44,3.76ZM169.38,132.07c1.73,1.64,1.73,2.33,0,5.78-2.07,4.06-3.79,5.79-6,5.79-4.58,0-4.58-5.79,0-10.71C165.84,130.32,167.48,130.07,169.38,132.07Zm63.11,0c1.64,1.64,1.12,3.71-1.9,8.37-1.64,2.68-2.5,3.29-4.32,3-3.19-.35-4.23-2.51-2.84-5.79C226,131.27,229.55,129.07,232.49,132.07Z" transform="translate(-1.96 -2.93)"/><path class="cls-1" d="M26.23,48a6.5,6.5,0,0,0-2.68,7.86c1.73,4.49,1.64,4.49,32.8,4.57,28.06,0,29.1-.08,31.34-1.81a6.61,6.61,0,0,0,.88-9.31,6.1,6.1,0,0,0-.88-.88c-2.24-1.72-3.28-1.81-30.9-1.81C31.92,46.65,27.86,46.79,26.23,48Z" transform="translate(-1.96 -2.93)"/><path class="cls-1" d="M4,85.93a6.69,6.69,0,0,0-.52,9.15l1.64,2.07,44.55.26c30.21.17,45.15-.09,46.27-.69,4.58-2.42,5.27-7.69,1.56-11.23-1.82-1.72-2.85-1.72-46.62-1.72H6.11Z" transform="translate(-1.96 -2.93)"/><g class="cls-2"><path class="cls-1" d="M380.13,28.13V47.94H338.76V69.35h30.95V88.58H338.76v41.08H314V28.13Z" transform="translate(-1.96 -2.93)"/><path class="cls-1" d="M392.93,67.32a34.91,34.91,0,0,1,12.8-14.46A33.32,33.32,0,0,1,423.8,47.8a31,31,0,0,1,15,3.47,25.52,25.52,0,0,1,9.91,9.11V49h24.73v80.71H448.68V118.23a26.67,26.67,0,0,1-10.05,9.11,31,31,0,0,1-15,3.47,32.79,32.79,0,0,1-17.93-5.13,35.34,35.34,0,0,1-12.8-14.61,48.59,48.59,0,0,1-4.7-21.91A48.17,48.17,0,0,1,392.93,67.32Zm50.62,7.38a17.39,17.39,0,0,0-25-.08q-5.14,5.3-5.14,14.54t5.14,14.68a17.22,17.22,0,0,0,25,.07q5.13-5.34,5.13-14.61T443.55,74.7Z" transform="translate(-1.96 -2.93)"/><path class="cls-1" d="M505.37,127.2a32.15,32.15,0,0,1-13-9.91,26,26,0,0,1-5.36-14.1h24.45a9.41,9.41,0,0,0,3.9,6.8,13.87,13.87,0,0,0,8.54,2.6c3.08,0,5.47-.6,7.15-1.81a5.53,5.53,0,0,0,2.54-4.7q0-3.47-3.62-5.13a73.11,73.11,0,0,0-11.71-3.69A109.18,109.18,0,0,1,503.78,93a24.93,24.93,0,0,1-10-7.08q-4.2-4.84-4.19-13.09a22.28,22.28,0,0,1,3.83-12.66,25.87,25.87,0,0,1,11.28-9,43.34,43.34,0,0,1,17.72-3.32q15.18,0,23.94,7.52t10,20H533.58a9.89,9.89,0,0,0-3.69-6.66,12.81,12.81,0,0,0-8.17-2.46,11.29,11.29,0,0,0-6.66,1.67,5.31,5.31,0,0,0-2.31,4.55c0,2.32,1.23,4.05,3.69,5.21a59.07,59.07,0,0,0,11.5,3.47,124.4,124.4,0,0,1,14.6,4.56,25.1,25.1,0,0,1,9.91,7.23c2.84,3.32,4.31,7.79,4.41,13.38a21.17,21.17,0,0,1-4,12.65,26.32,26.32,0,0,1-11.42,8.75,43.76,43.76,0,0,1-17.29,3.18A46.43,46.43,0,0,1,505.37,127.2Z" transform="translate(-1.96 -2.93)"/><path class="cls-1" d="M617,108.68v21H604.44q-13.44,0-21-6.58T576,101.6V69.49h-9.83V49H576V29.28h24.73V49h16.2V69.49h-16.2v32.4q0,3.61,1.74,5.2c1.16,1.07,3.08,1.59,5.79,1.59Z" transform="translate(-1.96 -2.93)"/><path class="cls-1" d="M737.07,86.34A24.88,24.88,0,0,1,742.42,102q0,12.73-8.9,20.18t-24.8,7.45H661.43V28.13h45.7q15.48,0,24.22,7.08t8.76,19.24q0,9-4.71,14.9a24.28,24.28,0,0,1-12.51,8.24A23.62,23.62,0,0,1,737.07,86.34ZM686.16,69.2h16.2q6.07,0,9.33-2.67c2.16-1.79,3.25-4.42,3.25-7.89s-1.09-6.12-3.25-8-5.28-2.75-9.33-2.75h-16.2ZM714,106.88c2.26-1.88,3.4-4.61,3.4-8.17a10.43,10.43,0,0,0-3.55-8.39q-3.54-3-9.76-3H686.16V109.7h18.22Q710.61,109.7,714,106.88Z" transform="translate(-1.96 -2.93)"/><path class="cls-1" d="M836.43,49v80.71H811.7v-11a27.18,27.18,0,0,1-10.2,8.61,31.11,31.11,0,0,1-14.25,3.25,31.87,31.87,0,0,1-16.34-4.12,27.78,27.78,0,0,1-11-11.93A40.66,40.66,0,0,1,756,96.1V49H780.6V92.78q0,8.1,4.19,12.58t11.29,4.48q7.23,0,11.42-4.48t4.2-12.58V49Z" transform="translate(-1.96 -2.93)"/><path class="cls-1" d="M936.66,49,886,168H859.42l18.52-41.07L845.11,49h27.62l18.66,50.48L909.9,49Z" transform="translate(-1.96 -2.93)"/></g></svg>