<svg id="Layer_1" data-name="Layer 1" xmlns="http://www.w3.org/2000/svg" viewBox="0 0 295.84 154.19"><defs><style>.cls-1{fill:#fff;}</style></defs><path class="cls-1" d="M58.48.83c-4.32,1.82-5,9.93-1,12.09,1,.52,10.36.86,21.93.86H99.67l1.47,4.92c.78,2.77,7.77,27.71,15.45,55.42,11.4,41.1,14.42,50.77,16,52.06,1.47,1.12,3.46,1.55,7.95,1.55,5.26,0,6,.18,5.52,1.47-2.16,7.94-1,14.76,3.45,19.94,5.1,6,12.18,6.65,20.72,2a25.12,25.12,0,0,0,6.91-5.87c3-4,5.18-11.83,4.31-15.46l-.51-2.07h28.31l-.86,3.2c-1.9,7.08,1.38,17.78,6.47,20.89,4.32,2.59,7.86,2.93,13,1.47,10-2.94,16.14-10.71,16.14-20.55v-5h7.26c5.61,0,7.68-.34,9.15-1.55,1.29-1,6.82-14.94,18.64-47.23,9.24-25.2,16.75-46.6,16.75-47.73a6.66,6.66,0,0,0-2.16-4l-2.07-2.12H212.14c-78.39,0-79.42,0-81.58,1.72a9.05,9.05,0,0,0-2.76,3.46c-.78,2.5,8.89,36.25,11,38.59l1.72,2h52.15c41.09,0,52,.26,52,1A50.21,50.21,0,0,1,242.31,79L240,85l-45.75.26-45.84.18-2,2.16a6.45,6.45,0,0,0-.13,9.13v0a6.64,6.64,0,0,0,.55.51l2.25,2h48.26c33.67,0,48.86-.26,50.41-1a9.46,9.46,0,0,0,3.43-4.08C254,87.66,262,65.22,262,63.75a8.28,8.28,0,0,0-2.07-4l-2.07-2.42-54.65-.43-54.64-.43L146.71,50c-1-3.54-2.07-7.51-2.42-8.89l-.51-2.34h67.33c37,0,67.34.26,67.34.61s-6,17.26-13.56,37.55l-13.46,37H142.13l-1.73-5.87c-1-3.19-7.59-27.19-14.76-53.26s-13.55-48.61-14-49.9C109.92.27,108-.07,83.16,0,70.67.07,59.6.4,58.48.83ZM167.42,129.14c1.73,1.64,1.73,2.33,0,5.78-2.07,4.06-3.79,5.79-6,5.79-4.58,0-4.58-5.79,0-10.71C163.88,127.39,165.52,127.14,167.42,129.14Zm63.11,0c1.64,1.64,1.12,3.71-1.9,8.37-1.64,2.68-2.5,3.29-4.32,3-3.19-.35-4.23-2.51-2.84-5.79C224,128.34,227.59,126.14,230.53,129.14Z" transform="translate(0.04 0)"/><path class="cls-1" d="M24.27,45.07a6.5,6.5,0,0,0-2.68,7.86c1.73,4.49,1.64,4.49,32.8,4.57,28.06,0,29.1-.08,31.34-1.81a6.61,6.61,0,0,0,.88-9.31h0a6.1,6.1,0,0,0-.88-.88c-2.24-1.72-3.28-1.81-30.9-1.81C30,43.72,25.9,43.86,24.27,45.07Z" transform="translate(0.04 0)"/><path class="cls-1" d="M2,83a6.69,6.69,0,0,0-.52,9.15l1.64,2.07,44.55.26c30.21.17,45.15-.09,46.27-.69,4.58-2.42,5.27-7.69,1.56-11.23-1.82-1.72-2.85-1.72-46.62-1.72H4.15Z" transform="translate(0.04 0)"/></svg>