<?xml version="1.0" encoding="UTF-8"?>
<!DOCTYPE svg PUBLIC "-//W3C//DTD SVG 1.1//EN" "http://www.w3.org/Graphics/SVG/1.1/DTD/svg11.dtd">
<svg xmlns="http://www.w3.org/2000/svg" version="1.1" width="200px" height="42px" style="shape-rendering:geometricPrecision; text-rendering:geometricPrecision; image-rendering:optimizeQuality; fill-rule:evenodd; clip-rule:evenodd" xmlns:xlink="http://www.w3.org/1999/xlink">
<g><path style="opacity:0.929" fill="#eff1f9" d="M 2.5,0.5 C 6.58517,-0.341162 9.58517,0.992171 11.5,4.5C 20.8096,5.49831 30.1429,5.83164 39.5,5.5C 39.265,9.57672 38.5983,13.5767 37.5,17.5C 39.0049,18.8415 39.6715,20.5082 39.5,22.5C 30.774,22.409 22.1073,23.0757 13.5,24.5C 13.7093,25.086 14.0426,25.586 14.5,26C 22.1667,26.3333 29.8333,26.6667 37.5,27C 37.8333,27.3333 38.1667,27.6667 38.5,28C 37.3774,29.0437 36.0441,29.7104 34.5,30C 35.3802,31.3561 35.7135,32.8561 35.5,34.5C 33.4727,34.6621 31.4727,34.4955 29.5,34C 28.2889,32.8869 28.2889,31.7202 29.5,30.5C 25.5411,29.3401 21.5411,29.1735 17.5,30C 18.3802,31.3561 18.7135,32.8561 18.5,34.5C 16.4727,34.6621 14.4727,34.4955 12.5,34C 11.2889,32.8869 11.2889,31.7202 12.5,30.5C 8.89449,27.1368 8.56115,23.4701 11.5,19.5C 10.0064,14.5244 8.67305,9.52438 7.5,4.5C 5.5,4.5 3.5,4.5 1.5,4.5C 1.43255,3.04125 1.76589,1.70792 2.5,0.5 Z M 22.5,11.5 C 22.7828,10.7109 23.2828,10.0442 24,9.5C 24.5281,10.816 24.0281,11.4827 22.5,11.5 Z M 22.5,11.5 C 21.3347,13.4161 19.668,14.2494 17.5,14C 18.9101,12.6283 20.5767,11.795 22.5,11.5 Z M 26.5,14.5 C 27.6653,12.5839 29.332,11.7506 31.5,12C 30.0899,13.3717 28.4233,14.205 26.5,14.5 Z M 26.5,14.5 C 25.0003,16.1786 23.167,17.5119 21,18.5C 21.765,16.1559 23.5983,14.8225 26.5,14.5 Z"/></g>
<g><path style="opacity:0.949" fill="#eff1f9" d="M 43.5,5.5 C 49.1667,5.5 54.8333,5.5 60.5,5.5C 60.5,7.5 60.5,9.5 60.5,11.5C 57.1667,11.5 53.8333,11.5 50.5,11.5C 50.5,12.8333 50.5,14.1667 50.5,15.5C 53.1667,15.5 55.8333,15.5 58.5,15.5C 58.7394,17.4672 58.4061,19.3005 57.5,21C 55.1902,21.4966 52.8568,21.6633 50.5,21.5C 50.5,24.5 50.5,27.5 50.5,30.5C 47.8333,30.5 45.1667,30.5 42.5,30.5C 42.1981,22.0817 42.5314,13.7483 43.5,5.5 Z"/></g>
<g><path style="opacity:0.887" fill="#eff2fa" d="M 107.5,5.5 C 110.167,5.5 112.833,5.5 115.5,5.5C 115.5,7.16667 115.5,8.83333 115.5,10.5C 116.833,10.5 118.167,10.5 119.5,10.5C 119.5,12.5 119.5,14.5 119.5,16.5C 118.167,16.5 116.833,16.5 115.5,16.5C 115.5,19.1667 115.5,21.8333 115.5,24.5C 116.833,24.5 118.167,24.5 119.5,24.5C 119.5,26.5 119.5,28.5 119.5,30.5C 116.813,30.6641 114.146,30.4974 111.5,30C 109.741,28.992 108.574,27.492 108,25.5C 107.698,21.389 106.864,17.389 105.5,13.5C 106.664,10.9328 107.33,8.26617 107.5,5.5 Z"/></g>
<g><path style="opacity:0.955" fill="#eff1f9" d="M 128.5,5.5 C 133.844,5.33398 139.177,5.50065 144.5,6C 149.717,9.12609 150.383,12.9594 146.5,17.5C 150.058,21.0264 150.392,24.8597 147.5,29C 141.285,30.4155 134.952,30.9155 128.5,30.5C 128.5,22.1667 128.5,13.8333 128.5,5.5 Z M 135.5,11.5 C 143.161,13.1429 143.161,14.4762 135.5,15.5C 135.5,14.1667 135.5,12.8333 135.5,11.5 Z M 135.5,20.5 C 138.969,19.8872 140.969,21.2206 141.5,24.5C 139.5,24.5 137.5,24.5 135.5,24.5C 135.5,23.1667 135.5,21.8333 135.5,20.5 Z"/></g>
<g><path style="opacity:0.914" fill="#eff1f9" d="M 66.5,10.5 C 72.1667,11.8333 77.8333,11.8333 83.5,10.5C 83.5,17.1667 83.5,23.8333 83.5,30.5C 80.5525,30.7771 77.7191,30.4438 75,29.5C 66.7992,32.9608 62.2992,30.1275 61.5,21C 61.5486,16.6679 63.2153,13.1679 66.5,10.5 Z M 71.5,16.5 C 76.2662,18.6571 76.5995,21.3237 72.5,24.5C 68.9335,22.2347 68.6001,19.568 71.5,16.5 Z"/></g>
<g><path style="opacity:0.912" fill="#eff1f9" d="M 90.5,10.5 C 94.3076,10.1632 97.9743,10.6632 101.5,12C 102.861,13.5843 103.528,15.4176 103.5,17.5C 101.143,17.3367 98.8098,17.5034 96.5,18C 103.339,19.352 105.339,23.0187 102.5,29C 95.276,32.9453 89.6093,31.4453 85.5,24.5C 87.7662,23.6858 90.0995,23.1858 92.5,23C 85.3021,19.8465 84.6354,15.6798 90.5,10.5 Z M 93.5,23.5 C 94.675,23.281 95.675,23.6143 96.5,24.5C 94.9483,25.7979 93.9483,25.4646 93.5,23.5 Z"/></g>
<g><path style="opacity:0.932" fill="#eff1f9" d="M 155.5,10.5 C 161.203,11.5365 166.87,11.5365 172.5,10.5C 172.5,17.1667 172.5,23.8333 172.5,30.5C 169.552,30.7771 166.719,30.4438 164,29.5C 155.826,32.9666 151.326,30.1332 150.5,21C 150.979,16.877 152.646,13.377 155.5,10.5 Z M 159.5,17.5 C 164.241,17.1614 165.574,19.1614 163.5,23.5C 158.827,24.1283 157.494,22.1283 159.5,17.5 Z"/></g>
<g><path style="opacity:0.902" fill="#eff1f9" d="M 173.5,10.5 C 176.572,10.1826 179.572,10.5159 182.5,11.5C 183.569,14.5394 184.735,17.5394 186,20.5C 187.167,17.5 188.333,14.5 189.5,11.5C 192.167,10.1667 194.833,10.1667 197.5,11.5C 193.5,20.8333 189.5,30.1667 185.5,39.5C 182.914,40.48 180.247,40.8134 177.5,40.5C 178.397,36.8662 179.73,33.3662 181.5,30C 178.682,23.5356 176.016,17.0356 173.5,10.5 Z"/></g>
</svg>
